<svg width="107" height="52" viewBox="0 0 107 52" fill="none" xmlns="http://www.w3.org/2000/svg">
<rect width="107" height="52" fill="#D9D9D9"/>
<path d="M35.8921 34.0469V36.5H24.5171V34.0469H35.8921ZM25.1108 13.75V36.5H22.0952V13.75H25.1108ZM38.1421 28.2344V27.875C38.1421 26.6562 38.3192 25.526 38.6733 24.4844C39.0275 23.4323 39.5379 22.5208 40.2046 21.75C40.8713 20.9688 41.6785 20.3646 42.6265 19.9375C43.5744 19.5 44.6369 19.2812 45.814 19.2812C47.0015 19.2812 48.0692 19.5 49.0171 19.9375C49.9754 20.3646 50.7879 20.9688 51.4546 21.75C52.1317 22.5208 52.6473 23.4323 53.0015 24.4844C53.3556 25.526 53.5327 26.6562 53.5327 27.875V28.2344C53.5327 29.4531 53.3556 30.5833 53.0015 31.625C52.6473 32.6667 52.1317 33.5781 51.4546 34.3594C50.7879 35.1302 49.9806 35.7344 49.0327 36.1719C48.0952 36.599 47.0327 36.8125 45.8452 36.8125C44.6577 36.8125 43.59 36.599 42.6421 36.1719C41.6942 35.7344 40.8817 35.1302 40.2046 34.3594C39.5379 33.5781 39.0275 32.6667 38.6733 31.625C38.3192 30.5833 38.1421 29.4531 38.1421 28.2344ZM41.0327 27.875V28.2344C41.0327 29.0781 41.1317 29.875 41.3296 30.625C41.5275 31.3646 41.8244 32.0208 42.2202 32.5938C42.6265 33.1667 43.1317 33.6198 43.7358 33.9531C44.34 34.276 45.0431 34.4375 45.8452 34.4375C46.6369 34.4375 47.3296 34.276 47.9233 33.9531C48.5275 33.6198 49.0275 33.1667 49.4233 32.5938C49.8192 32.0208 50.116 31.3646 50.314 30.625C50.5223 29.875 50.6265 29.0781 50.6265 28.2344V27.875C50.6265 27.0417 50.5223 26.2552 50.314 25.5156C50.116 24.7656 49.814 24.1042 49.4077 23.5312C49.0119 22.9479 48.5119 22.4896 47.9077 22.1562C47.314 21.8229 46.616 21.6562 45.814 21.6562C45.0223 21.6562 44.3244 21.8229 43.7202 22.1562C43.1265 22.4896 42.6265 22.9479 42.2202 23.5312C41.8244 24.1042 41.5275 24.7656 41.3296 25.5156C41.1317 26.2552 41.0327 27.0417 41.0327 27.875ZM68.1108 19.5938H70.7358V36.1406C70.7358 37.6302 70.4338 38.901 69.8296 39.9531C69.2254 41.0052 68.3817 41.8021 67.2983 42.3438C66.2254 42.8958 64.9858 43.1719 63.5796 43.1719C62.9963 43.1719 62.3088 43.0781 61.5171 42.8906C60.7358 42.7135 59.965 42.4062 59.2046 41.9688C58.4546 41.5417 57.8244 40.9635 57.314 40.2344L58.8296 38.5156C59.5379 39.3698 60.2775 39.9635 61.0483 40.2969C61.8296 40.6302 62.6004 40.7969 63.3608 40.7969C64.2775 40.7969 65.0692 40.625 65.7358 40.2812C66.4025 39.9375 66.9181 39.4271 67.2827 38.75C67.6577 38.0833 67.8452 37.2604 67.8452 36.2812V23.3125L68.1108 19.5938ZM56.4702 28.2344V27.9062C56.4702 26.6146 56.6213 25.4427 56.9233 24.3906C57.2358 23.3281 57.6785 22.4167 58.2515 21.6562C58.8348 20.8958 59.5379 20.3125 60.3608 19.9062C61.1838 19.4896 62.1108 19.2812 63.1421 19.2812C64.2046 19.2812 65.1317 19.4688 65.9233 19.8438C66.7254 20.2083 67.4025 20.7448 67.9546 21.4531C68.5171 22.151 68.9598 22.9948 69.2827 23.9844C69.6056 24.974 69.8296 26.0938 69.9546 27.3438V28.7812C69.84 30.0208 69.616 31.1354 69.2827 32.125C68.9598 33.1146 68.5171 33.9583 67.9546 34.6562C67.4025 35.3542 66.7254 35.8906 65.9233 36.2656C65.1213 36.6302 64.1838 36.8125 63.1108 36.8125C62.1004 36.8125 61.1838 36.599 60.3608 36.1719C59.5483 35.7448 58.8504 35.1458 58.2671 34.375C57.6838 33.6042 57.2358 32.6979 56.9233 31.6562C56.6213 30.6042 56.4702 29.4635 56.4702 28.2344ZM59.3608 27.9062V28.2344C59.3608 29.0781 59.4442 29.8698 59.6108 30.6094C59.7879 31.349 60.0535 32 60.4077 32.5625C60.7723 33.125 61.2358 33.5677 61.7983 33.8906C62.3608 34.2031 63.0327 34.3594 63.814 34.3594C64.7723 34.3594 65.564 34.1562 66.189 33.75C66.814 33.3438 67.3088 32.8073 67.6733 32.1406C68.0483 31.474 68.34 30.75 68.5483 29.9688V26.2031C68.4338 25.6302 68.2567 25.0781 68.0171 24.5469C67.7879 24.0052 67.4858 23.526 67.1108 23.1094C66.7463 22.6823 66.2931 22.3438 65.7515 22.0938C65.2098 21.8438 64.5744 21.7188 63.8452 21.7188C63.0535 21.7188 62.3713 21.8854 61.7983 22.2188C61.2358 22.5417 60.7723 22.9896 60.4077 23.5625C60.0535 24.125 59.7879 24.7812 59.6108 25.5312C59.4442 26.2708 59.3608 27.0625 59.3608 27.9062ZM74.3608 28.2344V27.875C74.3608 26.6562 74.5379 25.526 74.8921 24.4844C75.2463 23.4323 75.7567 22.5208 76.4233 21.75C77.09 20.9688 77.8973 20.3646 78.8452 19.9375C79.7931 19.5 80.8556 19.2812 82.0327 19.2812C83.2202 19.2812 84.2879 19.5 85.2358 19.9375C86.1942 20.3646 87.0067 20.9688 87.6733 21.75C88.3504 22.5208 88.866 23.4323 89.2202 24.4844C89.5744 25.526 89.7515 26.6562 89.7515 27.875V28.2344C89.7515 29.4531 89.5744 30.5833 89.2202 31.625C88.866 32.6667 88.3504 33.5781 87.6733 34.3594C87.0067 35.1302 86.1994 35.7344 85.2515 36.1719C84.314 36.599 83.2515 36.8125 82.064 36.8125C80.8765 36.8125 79.8088 36.599 78.8608 36.1719C77.9129 35.7344 77.1004 35.1302 76.4233 34.3594C75.7567 33.5781 75.2463 32.6667 74.8921 31.625C74.5379 30.5833 74.3608 29.4531 74.3608 28.2344ZM77.2515 27.875V28.2344C77.2515 29.0781 77.3504 29.875 77.5483 30.625C77.7463 31.3646 78.0431 32.0208 78.439 32.5938C78.8452 33.1667 79.3504 33.6198 79.9546 33.9531C80.5588 34.276 81.2619 34.4375 82.064 34.4375C82.8556 34.4375 83.5483 34.276 84.1421 33.9531C84.7463 33.6198 85.2463 33.1667 85.6421 32.5938C86.0379 32.0208 86.3348 31.3646 86.5327 30.625C86.741 29.875 86.8452 29.0781 86.8452 28.2344V27.875C86.8452 27.0417 86.741 26.2552 86.5327 25.5156C86.3348 24.7656 86.0327 24.1042 85.6265 23.5312C85.2306 22.9479 84.7306 22.4896 84.1265 22.1562C83.5327 21.8229 82.8348 21.6562 82.0327 21.6562C81.241 21.6562 80.5431 21.8229 79.939 22.1562C79.3452 22.4896 78.8452 22.9479 78.439 23.5312C78.0431 24.1042 77.7463 24.7656 77.5483 25.5156C77.3504 26.2552 77.2515 27.0417 77.2515 27.875Z" fill="black"/>
</svg>
